<svg version="1.1" id="Layer_1" xmlns="http://www.w3.org/2000/svg" xmlns:xlink="http://www.w3.org/1999/xlink" x="0px" y="0px"
	 width="100%" viewBox="0 0 500 500" enable-background="new 0 0 500 500" xml:space="preserve">
<path fill="#FFFFFF" opacity="1.000000" stroke="none" 
	d="
M242.000000,501.000000 
	C161.333359,501.000000 81.166702,501.000000 1.000043,501.000000 
	C1.000029,334.333405 1.000029,167.666779 1.000014,1.000133 
	C167.666565,1.000088 334.333130,1.000088 500.999756,1.000044 
	C500.999847,167.666519 500.999847,334.333038 500.999939,500.999786 
	C414.833344,501.000000 328.666656,501.000000 242.000000,501.000000 
M316.500000,353.711304 
	C324.828888,353.768005 333.157837,353.815613 341.486633,353.883698 
	C352.125458,353.970642 357.003845,349.108429 357.004303,338.370483 
	C357.006683,280.889160 357.005646,223.407837 357.004089,165.926514 
	C357.004059,164.593750 357.060303,163.255264 356.960785,161.929153 
	C356.192841,151.694687 345.996979,145.460266 336.614624,149.611298 
	C330.204132,152.447479 327.945892,157.735474 327.955170,164.544464 
	C328.026733,217.027313 327.994476,269.510315 327.994415,321.993256 
	C327.994415,323.941345 327.994415,325.889465 327.994415,327.888611 
	C276.375153,327.888611 225.356598,327.888611 174.005630,327.888611 
	C174.005630,325.514374 174.005646,323.537354 174.005630,321.560364 
	C174.005310,268.910797 174.021851,216.261215 173.988342,163.611679 
	C173.982635,154.651199 168.017960,148.410812 159.637772,148.326569 
	C151.251038,148.242264 145.030304,154.459320 145.022552,163.352234 
	C144.971619,221.833191 144.973969,280.314240 145.019592,338.795166 
	C145.026840,348.073395 151.182816,353.892090 160.554001,353.881134 
	C212.202667,353.820740 263.851318,353.766998 316.500000,353.711304 
M283.340332,180.500259 
	C283.342499,189.999802 283.212128,199.501755 283.386322,208.998138 
	C283.541656,217.465881 288.712555,222.300781 296.972137,222.123199 
	C304.559570,221.960068 309.049805,217.038086 309.068115,208.729523 
	C309.100800,193.896973 309.101532,179.064285 309.068451,164.231735 
	C309.049835,155.883514 304.247589,150.551758 296.679199,150.342941 
	C288.978302,150.130463 283.601013,155.560562 283.366028,164.002075 
	C283.222321,169.164474 283.340332,174.334137 283.340332,180.500259 
M264.688812,198.490417 
	C264.682983,186.824875 264.841766,175.156143 264.614594,163.494904 
	C264.457520,155.431137 258.760376,150.060410 251.322159,150.349258 
	C243.853729,150.639252 238.965042,155.857330 238.941772,163.746674 
	C238.897049,178.911865 238.892181,194.077423 238.945374,209.242554 
	C238.972153,216.880981 243.523346,221.838821 250.553513,222.114532 
	C258.736664,222.435455 264.076843,217.908005 264.601654,209.980286 
	C264.832336,206.495087 264.671448,202.983994 264.688812,198.490417 
M223.725662,310.250092 
	C225.680847,310.511993 227.635071,310.992340 229.591370,311.000946 
	C244.228683,311.065277 258.878143,310.683075 273.499573,311.168732 
	C282.327026,311.461914 287.728302,304.812683 287.806244,298.497650 
	C287.902588,290.693451 282.224457,285.363678 273.478912,285.310455 
	C258.841888,285.221375 244.203583,285.231659 229.566437,285.312714 
	C222.703934,285.350708 217.566101,288.960175 216.165298,294.391541 
	C214.450012,301.042297 216.587677,305.922974 223.725662,310.250092 
M213.810486,220.657242 
	C218.113556,217.949142 220.089569,214.101685 220.056519,208.972290 
	C219.960007,194.001495 220.047699,179.029602 219.988800,164.058441 
	C219.981750,162.265259 219.808716,160.369049 219.210693,158.700500 
	C217.042404,152.650604 211.280136,149.466339 204.910233,150.564468 
	C198.499161,151.669693 194.271912,156.518692 194.195358,163.614182 
	C194.035660,178.417496 194.077133,193.224014 194.156052,208.028564 
	C194.215759,219.228592 202.224365,224.664185 213.810486,220.657242 
M295.066772,267.966766 
	C296.227478,267.988983 297.388489,268.040070 298.548859,268.028625 
	C305.123535,267.963806 310.256348,264.203918 312.345551,257.941010 
	C314.253571,252.221100 312.190216,245.814896 307.204010,241.978043 
	C302.203339,238.130051 295.187653,237.916077 289.995514,241.359421 
	C285.087708,244.614197 283.013428,249.280579 283.464600,254.972610 
	C283.997864,261.700714 288.068909,265.717468 295.066772,267.966766 
M209.162003,239.065384 
	C208.329300,239.045975 207.493500,238.970215 206.664398,239.016068 
	C200.345764,239.365494 194.714844,243.609940 193.177734,249.154144 
	C191.472870,255.303421 193.566238,261.821686 198.359772,265.289673 
	C203.453384,268.974762 210.578918,269.153534 215.683640,265.746277 
	C221.199219,262.064819 223.048874,256.685364 221.820282,250.522186 
	C220.569519,244.247620 216.321594,240.454819 209.162003,239.065384 
z"/>
<path fill="#5473FF" opacity="1.000000" stroke="none" 
	d="
M316.000000,353.711121 
	C263.851318,353.766998 212.202667,353.820740 160.554001,353.881134 
	C151.182816,353.892090 145.026840,348.073395 145.019592,338.795166 
	C144.973969,280.314240 144.971619,221.833191 145.022552,163.352234 
	C145.030304,154.459320 151.251038,148.242264 159.637772,148.326569 
	C168.017960,148.410812 173.982635,154.651199 173.988342,163.611679 
	C174.021851,216.261215 174.005310,268.910797 174.005630,321.560364 
	C174.005646,323.537354 174.005630,325.514374 174.005630,327.888611 
	C225.356598,327.888611 276.375153,327.888611 327.994415,327.888611 
	C327.994415,325.889465 327.994415,323.941345 327.994415,321.993256 
	C327.994476,269.510315 328.026733,217.027313 327.955170,164.544464 
	C327.945892,157.735474 330.204132,152.447479 336.614624,149.611298 
	C345.996979,145.460266 356.192841,151.694687 356.960785,161.929153 
	C357.060303,163.255264 357.004059,164.593750 357.004089,165.926514 
	C357.005646,223.407837 357.006683,280.889160 357.004303,338.370483 
	C357.003845,349.108429 352.125458,353.970642 341.486633,353.883698 
	C333.157837,353.815613 324.828888,353.768005 316.000000,353.711121 
z"/>
<path fill="#5574FF" opacity="1.000000" stroke="none" 
	d="
M283.340576,180.000397 
	C283.340332,174.334137 283.222321,169.164474 283.366028,164.002075 
	C283.601013,155.560562 288.978302,150.130463 296.679199,150.342941 
	C304.247589,150.551758 309.049835,155.883514 309.068451,164.231735 
	C309.101532,179.064285 309.100800,193.896973 309.068115,208.729523 
	C309.049805,217.038086 304.559570,221.960068 296.972137,222.123199 
	C288.712555,222.300781 283.541656,217.465881 283.386322,208.998138 
	C283.212128,199.501755 283.342499,189.999802 283.340576,180.000397 
z"/>
<path fill="#5573FF" opacity="1.000000" stroke="none" 
	d="
M264.688599,198.987534 
	C264.671448,202.983994 264.832336,206.495087 264.601654,209.980286 
	C264.076843,217.908005 258.736664,222.435455 250.553513,222.114532 
	C243.523346,221.838821 238.972153,216.880981 238.945374,209.242554 
	C238.892181,194.077423 238.897049,178.911865 238.941772,163.746674 
	C238.965042,155.857330 243.853729,150.639252 251.322159,150.349258 
	C258.760376,150.060410 264.457520,155.431137 264.614594,163.494904 
	C264.841766,175.156143 264.682983,186.824875 264.688599,198.987534 
z"/>
<path fill="#5573FF" opacity="1.000000" stroke="none" 
	d="
M223.352676,310.100098 
	C216.587677,305.922974 214.450012,301.042297 216.165298,294.391541 
	C217.566101,288.960175 222.703934,285.350708 229.566437,285.312714 
	C244.203583,285.231659 258.841888,285.221375 273.478912,285.310455 
	C282.224457,285.363678 287.902588,290.693451 287.806244,298.497650 
	C287.728302,304.812683 282.327026,311.461914 273.499573,311.168732 
	C258.878143,310.683075 244.228683,311.065277 229.591370,311.000946 
	C227.635071,310.992340 225.680847,310.511993 223.352676,310.100098 
z"/>
<path fill="#5473FF" opacity="1.000000" stroke="none" 
	d="
M213.462051,220.851196 
	C202.224365,224.664185 194.215759,219.228592 194.156052,208.028564 
	C194.077133,193.224014 194.035660,178.417496 194.195358,163.614182 
	C194.271912,156.518692 198.499161,151.669693 204.910233,150.564468 
	C211.280136,149.466339 217.042404,152.650604 219.210693,158.700500 
	C219.808716,160.369049 219.981750,162.265259 219.988800,164.058441 
	C220.047699,179.029602 219.960007,194.001495 220.056519,208.972290 
	C220.089569,214.101685 218.113556,217.949142 213.462051,220.851196 
z"/>
<path fill="#5573FF" opacity="1.000000" stroke="none" 
	d="
M294.651367,267.914978 
	C288.068909,265.717468 283.997864,261.700714 283.464600,254.972610 
	C283.013428,249.280579 285.087708,244.614197 289.995514,241.359421 
	C295.187653,237.916077 302.203339,238.130051 307.204010,241.978043 
	C312.190216,245.814896 314.253571,252.221100 312.345551,257.941010 
	C310.256348,264.203918 305.123535,267.963806 298.548859,268.028625 
	C297.388489,268.040070 296.227478,267.988983 294.651367,267.914978 
z"/>
<path fill="#5473FF" opacity="1.000000" stroke="none" 
	d="
M209.577911,239.098907 
	C216.321594,240.454819 220.569519,244.247620 221.820282,250.522186 
	C223.048874,256.685364 221.199219,262.064819 215.683640,265.746277 
	C210.578918,269.153534 203.453384,268.974762 198.359772,265.289673 
	C193.566238,261.821686 191.472870,255.303421 193.177734,249.154144 
	C194.714844,243.609940 200.345764,239.365494 206.664398,239.016068 
	C207.493500,238.970215 208.329300,239.045975 209.577911,239.098907 
z"/>
</svg>