<svg version="1.1" id="Layer_1" xmlns="http://www.w3.org/2000/svg" xmlns:xlink="http://www.w3.org/1999/xlink" x="0px" y="0px"
	 width="100%" viewBox="0 0 500 500" enable-background="new 0 0 500 500" xml:space="preserve">
<path fill="#FFFFFF" opacity="1.000000" stroke="none" 
	d="
M225.000000,501.000000 
	C150.000015,501.000000 75.500038,501.000000 1.000040,501.000000 
	C1.000027,334.333405 1.000027,167.666779 1.000013,1.000129 
	C167.666565,1.000086 334.333130,1.000086 500.999756,1.000043 
	C500.999847,167.666534 500.999847,334.333069 500.999939,500.999817 
	C409.166656,501.000000 317.333344,501.000000 225.000000,501.000000 
M300.825836,397.347931 
	C334.078766,385.534058 360.871368,365.185883 380.261932,335.715179 
	C401.417877,303.561340 408.869171,268.017517 403.990082,229.940842 
	C400.280548,200.991272 389.124573,175.002090 370.221649,152.837234 
	C337.093170,113.992043 294.972900,94.796883 243.564178,96.798042 
	C209.012558,98.143013 178.432816,110.135185 152.258911,132.286636 
	C116.125931,162.866638 97.328850,202.067566 96.690544,249.748138 
	C96.262589,281.715668 105.007408,310.968811 122.748154,337.322357 
	C161.582108,395.009460 234.164734,419.515869 300.825836,397.347931 
z"/>
<path fill="#5372FF" opacity="1.000000" stroke="none" 
	d="
M300.466309,397.514618 
	C234.164734,419.515869 161.582108,395.009460 122.748154,337.322357 
	C105.007408,310.968811 96.262589,281.715668 96.690544,249.748138 
	C97.328850,202.067566 116.125931,162.866638 152.258911,132.286636 
	C178.432816,110.135185 209.012558,98.143013 243.564178,96.798042 
	C294.972900,94.796883 337.093170,113.992043 370.221649,152.837234 
	C389.124573,175.002090 400.280548,200.991272 403.990082,229.940842 
	C408.869171,268.017517 401.417877,303.561340 380.261932,335.715179 
	C360.871368,365.185883 334.078766,385.534058 300.466309,397.514618 
M329.239655,265.500000 
	C329.239624,254.169113 329.242004,242.838211 329.238953,231.507324 
	C329.234833,216.177032 329.303619,200.846146 329.184937,185.516724 
	C329.132141,178.697495 325.151794,174.922806 318.604309,174.987289 
	C311.907501,175.053268 308.013489,179.521057 308.009552,187.317841 
	C307.990112,225.643768 308.000610,263.969696 308.000549,302.295624 
	C308.000549,304.210327 308.000549,306.125000 308.000549,307.968048 
	C269.607147,307.968048 232.024826,307.968048 193.985931,307.968048 
	C193.985931,305.692657 193.985916,303.723999 193.985916,301.755371 
	C193.985916,266.095581 193.986572,230.435822 193.984802,194.776047 
	C193.984650,191.610092 194.103577,188.436813 193.931854,185.279739 
	C193.584137,178.886963 189.171951,174.873291 182.828735,174.987732 
	C176.627731,175.099609 172.802460,178.917984 172.793777,185.546829 
	C172.736588,229.204895 172.734283,272.863129 172.799088,316.521149 
	C172.809341,323.428619 176.523453,327.027008 183.290100,327.031006 
	C228.614624,327.057861 273.939148,327.060303 319.263702,327.032166 
	C326.013885,327.027985 329.744202,323.065704 329.672607,316.459747 
	C329.492035,299.806915 329.379608,283.153290 329.239655,265.500000 
M262.402344,276.268860 
	C253.259689,276.272766 244.113632,276.125488 234.975525,276.331360 
	C228.390274,276.479706 224.883743,280.162933 224.961273,286.185883 
	C225.034058,291.839142 228.646957,295.447144 234.909943,295.673859 
	C240.554504,295.878204 246.211990,295.734680 251.863754,295.728790 
	C257.515259,295.722900 263.179352,295.926819 268.814789,295.617462 
	C274.731842,295.292694 278.030334,291.598816 278.047516,285.991547 
	C278.064728,280.374329 274.805908,276.905182 268.846161,276.344757 
	C267.032379,276.174194 265.192017,276.286499 262.402344,276.268860 
M208.994659,194.522903 
	C208.996124,203.166504 208.902298,211.811569 209.033859,220.453186 
	C209.116058,225.852173 213.397430,229.984360 218.513229,229.980820 
	C223.666275,229.977280 227.922791,225.868958 227.972046,220.459946 
	C228.077988,208.825302 228.088577,197.188095 227.963928,185.553802 
	C227.906647,180.207596 224.036240,176.560928 218.761993,176.402588 
	C213.401382,176.241638 209.267136,180.071838 209.020432,185.556671 
	C208.901047,188.210938 208.996490,190.874893 208.994659,194.522903 
M246.328445,228.366409 
	C254.392395,232.037491 260.940277,228.099304 260.990387,219.454041 
	C261.054108,208.465012 261.045227,197.475143 260.989532,186.486023 
	C260.958618,180.383484 257.299591,176.504883 251.671371,176.393433 
	C245.933762,176.279816 242.040405,180.343506 242.010086,186.662170 
	C241.958160,197.484818 241.735199,208.318222 242.164810,219.124023 
	C242.282974,222.096222 244.462814,224.986435 246.328445,228.366409 
M294.035706,199.501892 
	C294.033478,195.017059 294.100220,190.530869 294.011902,186.047729 
	C293.897827,180.255798 290.248383,176.509598 284.814758,176.445663 
	C279.124512,176.378723 275.108795,180.150162 275.039032,186.097687 
	C274.906555,197.391296 274.928864,208.688171 275.030457,219.982407 
	C275.082031,225.718994 279.291229,229.948074 284.610596,229.976196 
	C289.910614,230.004211 293.945679,225.773331 294.014709,219.935165 
	C294.091339,213.457947 294.034454,206.979172 294.035706,199.501892 
M280.435394,262.287689 
	C287.202118,264.826996 292.886597,263.303375 295.665222,258.205566 
	C298.271973,253.422989 296.959564,247.592239 292.557648,244.399460 
	C287.421143,240.673874 281.329468,241.383438 277.350830,246.170761 
	C273.412506,250.909592 274.338379,257.003113 280.435394,262.287689 
M209.366364,247.205353 
	C207.168900,251.741516 206.917633,256.175354 210.487534,260.141449 
	C213.875397,263.905243 218.166809,264.497437 222.787704,262.919891 
	C227.262482,261.392181 229.339905,257.908508 229.515182,253.409012 
	C229.709671,248.416702 227.331787,244.857910 222.658005,242.916061 
	C217.407135,240.734436 213.329544,242.654160 209.366364,247.205353 
z"/>
<path fill="#FEFEFF" opacity="1.000000" stroke="none" 
	d="
M329.239777,266.000000 
	C329.379608,283.153290 329.492035,299.806915 329.672607,316.459747 
	C329.744202,323.065704 326.013885,327.027985 319.263702,327.032166 
	C273.939148,327.060303 228.614624,327.057861 183.290100,327.031006 
	C176.523453,327.027008 172.809341,323.428619 172.799088,316.521149 
	C172.734283,272.863129 172.736588,229.204895 172.793777,185.546829 
	C172.802460,178.917984 176.627731,175.099609 182.828735,174.987732 
	C189.171951,174.873291 193.584137,178.886963 193.931854,185.279739 
	C194.103577,188.436813 193.984650,191.610092 193.984802,194.776047 
	C193.986572,230.435822 193.985916,266.095581 193.985916,301.755371 
	C193.985916,303.723999 193.985931,305.692657 193.985931,307.968048 
	C232.024826,307.968048 269.607147,307.968048 308.000549,307.968048 
	C308.000549,306.125000 308.000549,304.210327 308.000549,302.295624 
	C308.000610,263.969696 307.990112,225.643768 308.009552,187.317841 
	C308.013489,179.521057 311.907501,175.053268 318.604309,174.987289 
	C325.151794,174.922806 329.132141,178.697495 329.184937,185.516724 
	C329.303619,200.846146 329.234833,216.177032 329.238953,231.507324 
	C329.242004,242.838211 329.239624,254.169113 329.239777,266.000000 
z"/>
<path fill="#F8FAFF" opacity="1.000000" stroke="none" 
	d="
M262.883087,276.269043 
	C265.192017,276.286499 267.032379,276.174194 268.846161,276.344757 
	C274.805908,276.905182 278.064728,280.374329 278.047516,285.991547 
	C278.030334,291.598816 274.731842,295.292694 268.814789,295.617462 
	C263.179352,295.926819 257.515259,295.722900 251.863754,295.728790 
	C246.211990,295.734680 240.554504,295.878204 234.909943,295.673859 
	C228.646957,295.447144 225.034058,291.839142 224.961273,286.185883 
	C224.883743,280.162933 228.390274,276.479706 234.975525,276.331360 
	C244.113632,276.125488 253.259689,276.272766 262.883087,276.269043 
z"/>
<path fill="#FDFEFF" opacity="1.000000" stroke="none" 
	d="
M208.994659,194.028687 
	C208.996490,190.874893 208.901047,188.210938 209.020432,185.556671 
	C209.267136,180.071838 213.401382,176.241638 218.761993,176.402588 
	C224.036240,176.560928 227.906647,180.207596 227.963928,185.553802 
	C228.088577,197.188095 228.077988,208.825302 227.972046,220.459946 
	C227.922791,225.868958 223.666275,229.977280 218.513229,229.980820 
	C213.397430,229.984360 209.116058,225.852173 209.033859,220.453186 
	C208.902298,211.811569 208.996124,203.166504 208.994659,194.028687 
z"/>
<path fill="#FDFEFF" opacity="1.000000" stroke="none" 
	d="
M246.012543,228.140335 
	C244.462814,224.986435 242.282974,222.096222 242.164810,219.124023 
	C241.735199,208.318222 241.958160,197.484818 242.010086,186.662170 
	C242.040405,180.343506 245.933762,176.279816 251.671371,176.393433 
	C257.299591,176.504883 260.958618,180.383484 260.989532,186.486023 
	C261.045227,197.475143 261.054108,208.465012 260.990387,219.454041 
	C260.940277,228.099304 254.392395,232.037491 246.012543,228.140335 
z"/>
<path fill="#FEFEFF" opacity="1.000000" stroke="none" 
	d="
M294.035706,200.001480 
	C294.034454,206.979172 294.091339,213.457947 294.014709,219.935165 
	C293.945679,225.773331 289.910614,230.004211 284.610596,229.976196 
	C279.291229,229.948074 275.082031,225.718994 275.030457,219.982407 
	C274.928864,208.688171 274.906555,197.391296 275.039032,186.097687 
	C275.108795,180.150162 279.124512,176.378723 284.814758,176.445663 
	C290.248383,176.509598 293.897827,180.255798 294.011902,186.047729 
	C294.100220,190.530869 294.033478,195.017059 294.035706,200.001480 
z"/>
<path fill="#FBFCFF" opacity="1.000000" stroke="none" 
	d="
M280.091888,262.118835 
	C274.338379,257.003113 273.412506,250.909592 277.350830,246.170761 
	C281.329468,241.383438 287.421143,240.673874 292.557648,244.399460 
	C296.959564,247.592239 298.271973,253.422989 295.665222,258.205566 
	C292.886597,263.303375 287.202118,264.826996 280.091888,262.118835 
z"/>
<path fill="#FBFCFF" opacity="1.000000" stroke="none" 
	d="
M209.590714,246.886261 
	C213.329544,242.654160 217.407135,240.734436 222.658005,242.916061 
	C227.331787,244.857910 229.709671,248.416702 229.515182,253.409012 
	C229.339905,257.908508 227.262482,261.392181 222.787704,262.919891 
	C218.166809,264.497437 213.875397,263.905243 210.487534,260.141449 
	C206.917633,256.175354 207.168900,251.741516 209.590714,246.886261 
z"/>
</svg>