<svg xmlns="http://www.w3.org/2000/svg" xmlns:xlink="http://www.w3.org/1999/xlink" width="500" zoomAndPan="magnify" viewBox="0 0 375 374.999991" height="500" preserveAspectRatio="xMidYMid meet" version="1.0"><defs><g/><clipPath id="8f4b5bec08"><path d="M 71.503906 71.503906 L 303.496094 71.503906 L 303.496094 303.496094 L 71.503906 303.496094 Z M 71.503906 71.503906 " clip-rule="nonzero"/></clipPath><clipPath id="ab80598c92"><path d="M 187.5 71.503906 C 123.4375 71.503906 71.503906 123.4375 71.503906 187.5 C 71.503906 251.5625 123.4375 303.496094 187.5 303.496094 C 251.5625 303.496094 303.496094 251.5625 303.496094 187.5 C 303.496094 123.4375 251.5625 71.503906 187.5 71.503906 Z M 187.5 71.503906 " clip-rule="nonzero"/></clipPath><clipPath id="d77e30de85"><path d="M 147.652344 128.9375 L 158.320312 128.9375 L 158.320312 204.300781 L 147.652344 204.300781 Z M 147.652344 128.9375 " clip-rule="nonzero"/></clipPath><clipPath id="13dbb4f89d"><path d="M 152.988281 128.9375 C 154.402344 128.9375 155.757812 129.496094 156.757812 130.5 C 157.761719 131.5 158.320312 132.855469 158.320312 134.269531 L 158.320312 198.929688 C 158.320312 200.34375 157.761719 201.703125 156.757812 202.703125 C 155.757812 203.703125 154.402344 204.265625 152.988281 204.265625 C 151.570312 204.265625 150.214844 203.703125 149.214844 202.703125 C 148.214844 201.703125 147.652344 200.34375 147.652344 198.929688 L 147.652344 134.269531 C 147.652344 132.855469 148.214844 131.5 149.214844 130.5 C 150.214844 129.496094 151.570312 128.9375 152.988281 128.9375 Z M 152.988281 128.9375 " clip-rule="nonzero"/></clipPath><clipPath id="ec34d40728"><path d="M 214.664062 128.9375 L 225.335938 128.9375 L 225.335938 204.300781 L 214.664062 204.300781 Z M 214.664062 128.9375 " clip-rule="nonzero"/></clipPath><clipPath id="8fa96d00ef"><path d="M 220 128.9375 C 221.414062 128.9375 222.769531 129.496094 223.773438 130.5 C 224.773438 131.5 225.335938 132.855469 225.335938 134.269531 L 225.335938 198.929688 C 225.335938 200.34375 224.773438 201.703125 223.773438 202.703125 C 222.769531 203.703125 221.414062 204.265625 220 204.265625 C 218.582031 204.265625 217.226562 203.703125 216.226562 202.703125 C 215.226562 201.703125 214.664062 200.34375 214.664062 198.929688 L 214.664062 134.269531 C 214.664062 132.855469 215.226562 131.5 216.226562 130.5 C 217.226562 129.496094 218.582031 128.9375 220 128.9375 Z M 220 128.9375 " clip-rule="nonzero"/></clipPath><clipPath id="a3a10a8548"><path d="M 148.160156 194.863281 L 225.371094 194.863281 L 225.371094 204.265625 L 148.160156 204.265625 Z M 148.160156 194.863281 " clip-rule="nonzero"/></clipPath><clipPath id="c10fa1d85f"><path d="M 152.859375 194.863281 L 220.632812 194.863281 C 221.878906 194.863281 223.074219 195.355469 223.957031 196.238281 C 224.839844 197.121094 225.335938 198.316406 225.335938 199.5625 C 225.335938 200.8125 224.839844 202.007812 223.957031 202.886719 C 223.074219 203.769531 221.878906 204.265625 220.632812 204.265625 L 152.859375 204.265625 C 151.613281 204.265625 150.417969 203.769531 149.535156 202.886719 C 148.652344 202.007812 148.160156 200.8125 148.160156 199.5625 C 148.160156 198.316406 148.652344 197.121094 149.535156 196.238281 C 150.417969 195.355469 151.613281 194.863281 152.859375 194.863281 Z M 152.859375 194.863281 " clip-rule="nonzero"/></clipPath><clipPath id="921bccaa28"><path d="M 165.070312 162.203125 L 175.984375 162.203125 L 175.984375 172.949219 L 165.070312 172.949219 Z M 165.070312 162.203125 " clip-rule="nonzero"/></clipPath><clipPath id="896934ffda"><path d="M 170.519531 162.203125 C 167.511719 162.203125 165.070312 164.609375 165.070312 167.574219 C 165.070312 170.542969 167.511719 172.949219 170.519531 172.949219 C 173.527344 172.949219 175.964844 170.542969 175.964844 167.574219 C 175.964844 164.609375 173.527344 162.203125 170.519531 162.203125 Z M 170.519531 162.203125 " clip-rule="nonzero"/></clipPath><clipPath id="3ba67643ae"><path d="M 198.316406 162.203125 L 209.230469 162.203125 L 209.230469 172.949219 L 198.316406 172.949219 Z M 198.316406 162.203125 " clip-rule="nonzero"/></clipPath><clipPath id="72c684ba69"><path d="M 203.765625 162.203125 C 200.753906 162.203125 198.316406 164.609375 198.316406 167.574219 C 198.316406 170.542969 200.753906 172.949219 203.765625 172.949219 C 206.773438 172.949219 209.210938 170.542969 209.210938 167.574219 C 209.210938 164.609375 206.773438 162.203125 203.765625 162.203125 Z M 203.765625 162.203125 " clip-rule="nonzero"/></clipPath><clipPath id="d12b982f41"><path d="M 173.507812 179.128906 L 200 179.128906 L 200 188.679688 L 173.507812 188.679688 Z M 173.507812 179.128906 " clip-rule="nonzero"/></clipPath><clipPath id="fe8f936829"><path d="M 178.285156 179.128906 L 195.207031 179.128906 C 197.847656 179.128906 199.984375 181.265625 199.984375 183.90625 C 199.984375 186.542969 197.847656 188.679688 195.207031 188.679688 L 178.285156 188.679688 C 175.648438 188.679688 173.507812 186.542969 173.507812 183.90625 C 173.507812 181.265625 175.648438 179.128906 178.285156 179.128906 Z M 178.285156 179.128906 " clip-rule="nonzero"/></clipPath><clipPath id="51e5598484"><path d="M 165.667969 129.703125 L 175.21875 129.703125 L 175.21875 156.199219 L 165.667969 156.199219 Z M 165.667969 129.703125 " clip-rule="nonzero"/></clipPath><clipPath id="f2ff7ee0fd"><path d="M 165.667969 151.425781 L 165.667969 134.5 C 165.667969 131.863281 167.804688 129.726562 170.441406 129.726562 C 173.082031 129.726562 175.21875 131.863281 175.21875 134.5 L 175.21875 151.425781 C 175.21875 154.0625 173.082031 156.199219 170.441406 156.199219 C 167.804688 156.199219 165.667969 154.0625 165.667969 151.425781 Z M 165.667969 151.425781 " clip-rule="nonzero"/></clipPath><clipPath id="7ff5ea2a91"><path d="M 181.96875 129.703125 L 191.523438 129.703125 L 191.523438 156.199219 L 181.96875 156.199219 Z M 181.96875 129.703125 " clip-rule="nonzero"/></clipPath><clipPath id="fb1acb8bdf"><path d="M 181.96875 151.425781 L 181.96875 134.5 C 181.96875 131.863281 184.109375 129.726562 186.746094 129.726562 C 189.382812 129.726562 191.523438 131.863281 191.523438 134.5 L 191.523438 151.425781 C 191.523438 154.0625 189.382812 156.199219 186.746094 156.199219 C 184.109375 156.199219 181.96875 154.0625 181.96875 151.425781 Z M 181.96875 151.425781 " clip-rule="nonzero"/></clipPath><clipPath id="aa46f36430"><path d="M 198.316406 129.703125 L 207.871094 129.703125 L 207.871094 156.199219 L 198.316406 156.199219 Z M 198.316406 129.703125 " clip-rule="nonzero"/></clipPath><clipPath id="8f0513b190"><path d="M 198.316406 151.425781 L 198.316406 134.5 C 198.316406 131.863281 200.453125 129.726562 203.09375 129.726562 C 205.730469 129.726562 207.871094 131.863281 207.871094 134.5 L 207.871094 151.425781 C 207.871094 154.0625 205.730469 156.199219 203.09375 156.199219 C 200.453125 156.199219 198.316406 154.0625 198.316406 151.425781 Z M 198.316406 151.425781 " clip-rule="nonzero"/></clipPath></defs><g clip-path="url(#8f4b5bec08)"><g clip-path="url(#ab80598c92)"><path fill="#5271ff" d="M 71.503906 71.503906 L 303.496094 71.503906 L 303.496094 303.496094 L 71.503906 303.496094 Z M 71.503906 71.503906 " fill-opacity="1" fill-rule="nonzero"/></g></g><g fill="#ffffff" fill-opacity="1"><g transform="translate(112.236071, 192.766102)"><g><path d="M 10.234375 5.609375 C 9.265625 5.765625 8.5625 6.207031 8.125 6.9375 C 7.6875 7.675781 7.523438 8.410156 7.640625 9.140625 C 7.765625 9.867188 8.09375 10.515625 8.625 11.078125 C 9.15625 11.640625 9.453125 12.117188 9.515625 12.515625 C 9.617188 13.203125 9.140625 14.140625 8.078125 15.328125 C 7.492188 15.960938 6.9375 16.320312 6.40625 16.40625 C 5.53125 16.550781 4.609375 16.050781 3.640625 14.90625 C 2.515625 13.738281 1.796875 12.195312 1.484375 10.28125 C 1.140625 8.144531 1.578125 5.960938 2.796875 3.734375 C 3.378906 2.660156 4.238281 1.722656 5.375 0.921875 C 6.507812 0.128906 7.820312 -0.382812 9.3125 -0.625 C 10.800781 -0.863281 12.195312 -0.78125 13.5 -0.375 C 14.800781 0.03125 15.898438 0.644531 16.796875 1.46875 C 18.628906 3.125 19.722656 5.039062 20.078125 7.21875 C 20.210938 8.082031 20.222656 8.945312 20.109375 9.8125 C 20.003906 10.6875 19.867188 11.34375 19.703125 11.78125 L 19.453125 12.375 C 19.234375 12.832031 19.066406 13.195312 18.953125 13.46875 C 18.585938 14.132812 18.109375 14.515625 17.515625 14.609375 C 16.921875 14.703125 16.21875 14.566406 15.40625 14.203125 C 14.007812 13.578125 13.253906 12.878906 13.140625 12.109375 C 13.066406 11.679688 13.210938 11.023438 13.578125 10.140625 C 13.910156 9.660156 14.015625 9.03125 13.890625 8.25 C 13.765625 7.476562 13.367188 6.804688 12.703125 6.234375 C 12.035156 5.660156 11.210938 5.453125 10.234375 5.609375 Z M 10.234375 5.609375 "/></g></g></g><g fill="#ffffff" fill-opacity="1"><g transform="translate(116.297503, 213.02535)"><g/></g></g><g fill="#ffffff" fill-opacity="1"><g transform="translate(120.292767, 224.177167)"><g><path d="M 8.03125 -4.578125 C 10.320312 -6.191406 12.773438 -6.722656 15.390625 -6.171875 C 18.003906 -5.617188 20.035156 -4.3125 21.484375 -2.25 C 22.929688 -0.1875 23.472656 2.15625 23.109375 4.78125 C 22.742188 7.40625 21.414062 9.523438 19.125 11.140625 C 17.539062 12.253906 15.84375 12.832031 14.03125 12.875 C 12.226562 12.914062 10.625 12.554688 9.21875 11.796875 C 7.820312 11.035156 6.679688 10.023438 5.796875 8.765625 C 4.910156 7.503906 4.359375 6.0625 4.140625 4.4375 C 3.921875 2.820312 4.128906 1.1875 4.765625 -0.46875 C 5.410156 -2.132812 6.5 -3.503906 8.03125 -4.578125 Z M 10.1875 2.828125 C 10.15625 3.773438 10.359375 4.5625 10.796875 5.1875 C 11.242188 5.820312 11.925781 6.285156 12.84375 6.578125 C 13.757812 6.867188 14.6875 6.6875 15.625 6.03125 C 16.5625 5.375 17.050781 4.585938 17.09375 3.671875 C 17.132812 2.765625 16.910156 1.960938 16.421875 1.265625 C 15.941406 0.578125 15.253906 0.109375 14.359375 -0.140625 C 13.460938 -0.398438 12.550781 -0.207031 11.625 0.4375 C 10.707031 1.09375 10.226562 1.890625 10.1875 2.828125 Z M 10.1875 2.828125 "/></g></g></g><g fill="#ffffff" fill-opacity="1"><g transform="translate(134.869131, 243.034078)"><g/></g></g><g fill="#ffffff" fill-opacity="1"><g transform="translate(143.529459, 251.104226)"><g><path d="M 24.3125 -16.765625 C 24.625 -16.992188 25.003906 -17.066406 25.453125 -16.984375 C 25.910156 -16.910156 26.460938 -16.703125 27.109375 -16.359375 C 27.765625 -16.015625 28.257812 -15.675781 28.59375 -15.34375 C 28.925781 -15.019531 29.085938 -14.660156 29.078125 -14.265625 C 29.066406 -13.867188 29.015625 -13.546875 28.921875 -13.296875 C 28.835938 -13.046875 28.671875 -12.679688 28.421875 -12.203125 L 18.734375 6.3125 C 18.492188 6.789062 18.296875 7.140625 18.140625 7.359375 C 17.984375 7.585938 17.742188 7.796875 17.421875 7.984375 C 16.816406 8.390625 15.796875 8.21875 14.359375 7.46875 C 12.921875 6.71875 12.382812 5.789062 12.75 4.6875 C 11.363281 5.226562 9.894531 5.09375 8.34375 4.28125 C 6.488281 3.3125 5.21875 1.613281 4.53125 -0.8125 C 3.84375 -3.238281 4.0625 -5.53125 5.1875 -7.6875 C 6.320312 -9.84375 8.085938 -11.332031 10.484375 -12.15625 C 12.878906 -12.988281 15 -12.925781 16.84375 -11.96875 C 18.375 -11.164062 19.289062 -10.03125 19.59375 -8.5625 L 23 -15.078125 C 23.25 -15.546875 23.453125 -15.890625 23.609375 -16.109375 C 23.773438 -16.328125 24.007812 -16.546875 24.3125 -16.765625 Z M 10.453125 -2.53125 C 10.691406 -1.695312 11.191406 -1.082031 11.953125 -0.6875 C 12.722656 -0.289062 13.507812 -0.238281 14.3125 -0.53125 C 15.113281 -0.820312 15.6875 -1.304688 16.03125 -1.984375 C 16.382812 -2.660156 16.46875 -3.410156 16.28125 -4.234375 C 16.101562 -5.066406 15.601562 -5.695312 14.78125 -6.125 C 13.957031 -6.5625 13.144531 -6.625 12.34375 -6.3125 C 11.550781 -6.007812 10.976562 -5.515625 10.625 -4.828125 C 10.269531 -4.140625 10.210938 -3.375 10.453125 -2.53125 Z M 10.453125 -2.53125 "/></g></g></g><g fill="#ffffff" fill-opacity="1"><g transform="translate(165.05288, 261.162713)"><g/></g></g><g fill="#ffffff" fill-opacity="1"><g transform="translate(176.362672, 264.303816)"><g><path d="M 19.34375 -11.171875 C 19.320312 -9.742188 18.945312 -8.6875 18.21875 -8 C 17.5 -7.3125 16.707031 -6.972656 15.84375 -6.984375 L 7.546875 -7.109375 C 7.535156 -6.460938 7.910156 -5.910156 8.671875 -5.453125 C 9.441406 -5.003906 10.210938 -4.773438 10.984375 -4.765625 C 12.335938 -4.742188 13.40625 -4.863281 14.1875 -5.125 L 14.5625 -5.265625 C 15.125 -5.515625 15.59375 -5.632812 15.96875 -5.625 C 16.71875 -5.613281 17.351562 -5.082031 17.875 -4.03125 C 18.164062 -3.394531 18.304688 -2.851562 18.296875 -2.40625 C 18.273438 -0.332031 15.78125 0.664062 10.8125 0.59375 C 9.082031 0.570312 7.550781 0.257812 6.21875 -0.34375 C 4.882812 -0.957031 3.847656 -1.757812 3.109375 -2.75 C 1.671875 -4.664062 0.96875 -6.789062 1 -9.125 C 1.039062 -12.0625 2.019531 -14.394531 3.9375 -16.125 C 5.863281 -17.863281 8.25 -18.71875 11.09375 -18.6875 C 14.34375 -18.644531 16.707031 -17.472656 18.1875 -15.171875 C 18.976562 -13.941406 19.363281 -12.609375 19.34375 -11.171875 Z M 11.9375 -10.234375 C 12.820312 -10.222656 13.269531 -10.59375 13.28125 -11.34375 C 13.289062 -11.875 13.09375 -12.304688 12.6875 -12.640625 C 12.28125 -12.972656 11.695312 -13.144531 10.9375 -13.15625 C 10.175781 -13.164062 9.421875 -12.863281 8.671875 -12.25 C 7.921875 -11.644531 7.539062 -10.992188 7.53125 -10.296875 Z M 11.9375 -10.234375 "/></g></g></g><g fill="#ffffff" fill-opacity="1"><g transform="translate(199.156438, 263.644983)"><g/></g></g><g fill="#ffffff" fill-opacity="1"><g transform="translate(210.682082, 261.423106)"><g><path d="M 12.34375 -18.609375 C 12.96875 -17.316406 13.101562 -16.203125 12.75 -15.265625 C 12.40625 -14.335938 11.847656 -13.6875 11.078125 -13.3125 L 3.59375 -9.734375 C 3.875 -9.148438 4.457031 -8.820312 5.34375 -8.75 C 6.226562 -8.6875 7.019531 -8.820312 7.71875 -9.15625 C 8.9375 -9.738281 9.835938 -10.316406 10.421875 -10.890625 L 10.703125 -11.1875 C 11.085938 -11.664062 11.453125 -11.984375 11.796875 -12.140625 C 12.472656 -12.472656 13.28125 -12.28125 14.21875 -11.5625 C 14.757812 -11.125 15.125 -10.703125 15.3125 -10.296875 C 16.21875 -8.429688 14.429688 -6.425781 9.953125 -4.28125 C 8.390625 -3.53125 6.875 -3.128906 5.40625 -3.078125 C 3.9375 -3.035156 2.65625 -3.289062 1.5625 -3.84375 C -0.582031 -4.914062 -2.160156 -6.503906 -3.171875 -8.609375 C -4.441406 -11.253906 -4.601562 -13.78125 -3.65625 -16.1875 C -2.707031 -18.601562 -0.945312 -20.429688 1.625 -21.671875 C 4.550781 -23.078125 7.1875 -23.078125 9.53125 -21.671875 C 10.789062 -20.921875 11.726562 -19.898438 12.34375 -18.609375 Z M 6.140625 -14.46875 C 6.929688 -14.851562 7.164062 -15.382812 6.84375 -16.0625 C 6.613281 -16.539062 6.242188 -16.835938 5.734375 -16.953125 C 5.234375 -17.078125 4.640625 -16.972656 3.953125 -16.640625 C 3.265625 -16.316406 2.71875 -15.710938 2.3125 -14.828125 C 1.90625 -13.953125 1.851562 -13.195312 2.15625 -12.5625 Z M 6.140625 -14.46875 "/></g></g></g><g fill="#ffffff" fill-opacity="1"><g transform="translate(230.801134, 250.690116)"><g/></g></g><g fill="#ffffff" fill-opacity="1"><g transform="translate(240.189428, 243.558592)"><g><path d="M 1.609375 -12.15625 L 5.28125 -16.890625 C 5.84375 -17.628906 6.34375 -18.085938 6.78125 -18.265625 C 7.21875 -18.441406 7.65625 -18.445312 8.09375 -18.28125 C 8.53125 -18.125 9.035156 -17.820312 9.609375 -17.375 C 10.179688 -16.9375 10.597656 -16.523438 10.859375 -16.140625 C 11.117188 -15.765625 11.207031 -15.382812 11.125 -15 C 11.050781 -14.625 10.945312 -14.316406 10.8125 -14.078125 C 10.6875 -13.847656 10.457031 -13.523438 10.125 -13.109375 L 2.40625 -3.109375 C 1.894531 -2.453125 1.210938 -2.066406 0.359375 -1.953125 C -0.484375 -1.847656 -1.238281 -2.050781 -1.90625 -2.5625 C -2.570312 -3.082031 -2.953125 -3.765625 -3.046875 -4.609375 C -3.148438 -5.453125 -3.257812 -6.710938 -3.375 -8.390625 C -3.488281 -10.078125 -3.585938 -11.601562 -3.671875 -12.96875 C -3.753906 -14.332031 -3.800781 -15.078125 -3.8125 -15.203125 L -6.8125 -11.296875 C -7.632812 -10.242188 -8.332031 -9.710938 -8.90625 -9.703125 C -9.550781 -9.703125 -10.207031 -9.957031 -10.875 -10.46875 C -11.539062 -10.988281 -12 -11.421875 -12.25 -11.765625 C -12.5 -12.109375 -12.648438 -12.40625 -12.703125 -12.65625 C -12.765625 -12.90625 -12.75 -13.1875 -12.65625 -13.5 C -12.507812 -13.882812 -12.179688 -14.398438 -11.671875 -15.046875 L -4.71875 -24.046875 C -4.21875 -24.691406 -3.550781 -25.078125 -2.71875 -25.203125 C -1.882812 -25.328125 -1.117188 -25.117188 -0.421875 -24.578125 C 0.265625 -24.046875 0.65625 -23.296875 0.75 -22.328125 C 0.851562 -21.367188 1.140625 -17.976562 1.609375 -12.15625 Z M 1.609375 -12.15625 "/></g></g></g><g fill="#ffffff" fill-opacity="1"><g transform="translate(253.6276, 224.525642)"><g/></g></g><g fill="#ffffff" fill-opacity="1"><g transform="translate(258.847801, 213.8744)"><g><path d="M -14.515625 -21.578125 C -13.671875 -22.828125 -12.828125 -23.367188 -11.984375 -23.203125 C -11.566406 -23.128906 -11.1875 -22.96875 -10.84375 -22.71875 C -10.507812 -22.46875 -10.332031 -22.335938 -10.3125 -22.328125 L 8.15625 -9.546875 C 8.5625 -9.285156 8.863281 -9.066406 9.0625 -8.890625 C 9.269531 -8.722656 9.453125 -8.484375 9.609375 -8.171875 C 9.765625 -7.859375 9.800781 -7.492188 9.71875 -7.078125 C 9.644531 -6.671875 9.363281 -6.097656 8.875 -5.359375 C 8.03125 -4.117188 7.191406 -3.578125 6.359375 -3.734375 C 5.804688 -3.835938 3.382812 -5.425781 -0.90625 -8.5 L -13.71875 -3.796875 C -14.550781 -3.484375 -15.15625 -3.363281 -15.53125 -3.4375 C -16.257812 -3.570312 -16.875 -4.328125 -17.375 -5.703125 C -17.695312 -6.566406 -17.816406 -7.21875 -17.734375 -7.65625 C -17.648438 -8.09375 -17.488281 -8.429688 -17.25 -8.671875 C -17.007812 -8.921875 -16.78125 -9.085938 -16.5625 -9.171875 C -16.351562 -9.253906 -15.171875 -9.679688 -13.015625 -10.453125 C -10.867188 -11.234375 -8.859375 -11.984375 -6.984375 -12.703125 C -7.328125 -12.890625 -8.628906 -13.773438 -10.890625 -15.359375 C -13.148438 -16.941406 -14.351562 -17.785156 -14.5 -17.890625 C -14.644531 -18.003906 -14.8125 -18.171875 -15 -18.390625 C -15.34375 -18.765625 -15.460938 -19.222656 -15.359375 -19.765625 C -15.253906 -20.304688 -14.972656 -20.910156 -14.515625 -21.578125 Z M -14.515625 -21.578125 "/></g></g></g><g clip-path="url(#d77e30de85)"><g clip-path="url(#13dbb4f89d)"><path fill="#ffffff" d="M 147.652344 128.9375 L 158.320312 128.9375 L 158.320312 204.261719 L 147.652344 204.261719 Z M 147.652344 128.9375 " fill-opacity="1" fill-rule="nonzero"/></g></g><g clip-path="url(#ec34d40728)"><g clip-path="url(#8fa96d00ef)"><path fill="#ffffff" d="M 214.664062 128.9375 L 225.335938 128.9375 L 225.335938 204.261719 L 214.664062 204.261719 Z M 214.664062 128.9375 " fill-opacity="1" fill-rule="nonzero"/></g></g><g clip-path="url(#a3a10a8548)"><g clip-path="url(#c10fa1d85f)"><path fill="#ffffff" d="M 148.160156 194.863281 L 225.332031 194.863281 L 225.332031 204.265625 L 148.160156 204.265625 Z M 148.160156 194.863281 " fill-opacity="1" fill-rule="nonzero"/></g></g><g clip-path="url(#921bccaa28)"><g clip-path="url(#896934ffda)"><path fill="#ffffff" d="M 165.070312 162.203125 L 175.984375 162.203125 L 175.984375 172.949219 L 165.070312 172.949219 Z M 165.070312 162.203125 " fill-opacity="1" fill-rule="nonzero"/></g></g><g clip-path="url(#3ba67643ae)"><g clip-path="url(#72c684ba69)"><path fill="#ffffff" d="M 198.316406 162.203125 L 209.230469 162.203125 L 209.230469 172.949219 L 198.316406 172.949219 Z M 198.316406 162.203125 " fill-opacity="1" fill-rule="nonzero"/></g></g><g clip-path="url(#d12b982f41)"><g clip-path="url(#fe8f936829)"><path fill="#ffffff" d="M 173.507812 179.128906 L 199.96875 179.128906 L 199.96875 188.679688 L 173.507812 188.679688 Z M 173.507812 179.128906 " fill-opacity="1" fill-rule="nonzero"/></g></g><g clip-path="url(#51e5598484)"><g clip-path="url(#f2ff7ee0fd)"><path fill="#ffffff" d="M 165.667969 156.199219 L 165.667969 129.742188 L 175.21875 129.742188 L 175.21875 156.199219 Z M 165.667969 156.199219 " fill-opacity="1" fill-rule="nonzero"/></g></g><g clip-path="url(#7ff5ea2a91)"><g clip-path="url(#fb1acb8bdf)"><path fill="#ffffff" d="M 181.96875 156.199219 L 181.96875 129.742188 L 191.523438 129.742188 L 191.523438 156.199219 Z M 181.96875 156.199219 " fill-opacity="1" fill-rule="nonzero"/></g></g><g clip-path="url(#aa46f36430)"><g clip-path="url(#8f0513b190)"><path fill="#ffffff" d="M 198.316406 156.199219 L 198.316406 129.742188 L 207.871094 129.742188 L 207.871094 156.199219 Z M 198.316406 156.199219 " fill-opacity="1" fill-rule="nonzero"/></g></g></svg>